<svg width="18" height="18" viewBox="0 0 18 18" fill="none" xmlns="http://www.w3.org/2000/svg">
<circle cx="9" cy="9" r="9" fill="#48B065"/>
<path d="M1 9C1 4.59375 4.5625 1 9 1C13.4062 1 17 4.59375 17 9C17 13.4375 13.4062 17 9 17C4.5625 17 1 13.4375 1 9ZM6.5 8.5C7.0625 8.5 7.5 8.0625 7.5 7.5C7.5 6.96875 7.0625 6.5 6.5 6.5C5.9375 6.5 5.5 6.96875 5.5 7.5C5.5 8.0625 5.9375 8.5 6.5 8.5ZM11.5 6.5C10.9375 6.5 10.5 6.96875 10.5 7.5C10.5 8.0625 10.9375 8.5 11.5 8.5C12.0625 8.5 12.5 8.0625 12.5 7.5C12.5 6.96875 12.0625 6.5 11.5 6.5ZM6 11.5C5.71875 11.5 5.5 11.75 5.5 12C5.5 12.2812 5.71875 12.5 6 12.5H12C12.25 12.5 12.5 12.2812 12.5 12C12.5 11.75 12.25 11.5 12 11.5H6Z" fill="white"/>
</svg>
