<svg width="21" height="21" viewBox="0 0 21 21" fill="none" xmlns="http://www.w3.org/2000/svg">
<path d="M16.25 8.125C16.25 9.92188 15.6641 11.6016 14.6875 12.9297L19.6094 17.8906C20.1172 18.3594 20.1172 19.1797 19.6094 19.6484C19.1406 20.1562 18.3203 20.1562 17.8516 19.6484L12.8906 14.6875C11.5625 15.7031 9.88281 16.25 8.125 16.25C3.63281 16.25 0 12.6172 0 8.125C0 3.67188 3.63281 0 8.125 0C12.5781 0 16.25 3.67188 16.25 8.125ZM8.125 13.75C10.1172 13.75 11.9531 12.6953 12.9688 10.9375C13.9844 9.21875 13.9844 7.07031 12.9688 5.3125C11.9531 3.59375 10.1172 2.5 8.125 2.5C6.09375 2.5 4.25781 3.59375 3.24219 5.3125C2.22656 7.07031 2.22656 9.21875 3.24219 10.9375C4.25781 12.6953 6.09375 13.75 8.125 13.75Z" fill="#48B065"/>
</svg>
