<svg width="24" height="26" viewBox="0 0 24 26" fill="none" xmlns="http://www.w3.org/2000/svg">
<path d="M21.75 13C21.75 9.53125 19.875 6.34375 16.875 4.5625C13.8281 2.82812 10.125 2.82812 7.125 4.5625C4.07812 6.34375 2.25 9.53125 2.25 13C2.25 16.5156 4.07812 19.7031 7.125 21.4844C10.125 23.2188 13.8281 23.2188 16.875 21.4844C19.875 19.7031 21.75 16.5156 21.75 13ZM0 13C0 8.73438 2.25 4.79688 6 2.64062C9.70312 0.484375 14.25 0.484375 18 2.64062C21.7031 4.79688 24 8.73438 24 13C24 17.3125 21.7031 21.25 18 23.4062C14.25 25.5625 9.70312 25.5625 6 23.4062C2.25 21.25 0 17.3125 0 13ZM8.15625 19.0469C7.96875 19.6094 7.3125 19.8906 6.70312 19.7031C6.14062 19.4688 5.85938 18.8594 6.04688 18.25C6.84375 16 9.28125 14.5 12 14.5C14.6719 14.5 17.1094 16 17.9062 18.25C18.1406 18.8594 17.8125 19.5156 17.25 19.7031C16.6406 19.9375 16.0312 19.6094 15.7969 19.0469C15.375 17.8281 13.9219 16.75 12 16.75C10.0312 16.75 8.57812 17.8281 8.15625 19.0469ZM6.75 10.75C6.75 9.95312 7.40625 9.25 8.25 9.25C9.09375 9.25 9.75 9.95312 9.75 10.75C9.75 11.5938 9.09375 12.25 8.25 12.25C7.40625 12.25 6.75 11.5938 6.75 10.75ZM15.75 9.25C16.5938 9.25 17.25 9.95312 17.25 10.75C17.25 11.5938 16.5938 12.25 15.75 12.25C14.9062 12.25 14.25 11.5938 14.25 10.75C14.25 9.95312 14.9062 9.25 15.75 9.25Z" fill="#333333"/>
</svg>
