<svg width="24" height="26" viewBox="0 0 24 26" fill="none" xmlns="http://www.w3.org/2000/svg">
<path d="M21.75 13C21.75 9.53125 19.875 6.34375 16.875 4.5625C13.8281 2.82812 10.125 2.82812 7.125 4.5625C4.07812 6.34375 2.25 9.53125 2.25 13C2.25 16.5156 4.07812 19.7031 7.125 21.4844C10.125 23.2188 13.8281 23.2188 16.875 21.4844C19.875 19.7031 21.75 16.5156 21.75 13ZM0 13C0 8.73438 2.25 4.79688 6 2.64062C9.70312 0.484375 14.25 0.484375 18 2.64062C21.7031 4.79688 24 8.73438 24 13C24 17.3125 21.7031 21.25 18 23.4062C14.25 25.5625 9.70312 25.5625 6 23.4062C2.25 21.25 0 17.3125 0 13ZM16.3594 15.4844C17.25 15.25 18.0469 16.0469 17.5781 16.7969C16.4062 18.5781 14.3438 19.75 11.9531 19.75C9.60938 19.75 7.54688 18.5781 6.375 16.7969C5.90625 16.0469 6.70312 15.25 7.59375 15.4844C8.95312 15.8125 10.4062 15.9531 11.9531 15.9531C13.5469 15.9531 15 15.8125 16.3594 15.4844ZM6.75 10.75C6.75 9.95312 7.40625 9.25 8.25 9.25C9.09375 9.25 9.75 9.95312 9.75 10.75C9.75 11.5938 9.09375 12.25 8.25 12.25C7.40625 12.25 6.75 11.5938 6.75 10.75ZM15.75 9.25C16.5938 9.25 17.25 9.95312 17.25 10.75C17.25 11.5938 16.5938 12.25 15.75 12.25C14.9062 12.25 14.25 11.5938 14.25 10.75C14.25 9.95312 14.9062 9.25 15.75 9.25Z" fill="#333333"/>
</svg>
