<svg width="20" height="20" viewBox="0 0 20 20" fill="none" xmlns="http://www.w3.org/2000/svg">
<path d="M5.58594 15.5859C5.11719 15.4297 4.84375 14.8828 5.03906 14.375C5.70312 12.5 7.73438 11.25 10 11.25C12.2266 11.25 14.2578 12.5 14.9219 14.375C15.1172 14.8828 14.8438 15.4297 14.375 15.5859C13.8672 15.7812 13.3203 15.5078 13.1641 15.0391C12.8125 14.0234 11.6016 13.125 10 13.125C8.35938 13.125 7.14844 14.0234 6.79688 15.0391C6.64062 15.5078 6.09375 15.7812 5.58594 15.5859ZM8.125 8.125C8.125 8.82812 7.57812 9.375 6.875 9.375C6.17188 9.375 5.625 8.82812 5.625 8.125C5.625 7.46094 6.17188 6.875 6.875 6.875C7.57812 6.875 8.125 7.46094 8.125 8.125ZM11.875 8.125C11.875 7.46094 12.4219 6.875 13.125 6.875C13.8281 6.875 14.375 7.46094 14.375 8.125C14.375 8.82812 13.8281 9.375 13.125 9.375C12.4219 9.375 11.875 8.82812 11.875 8.125ZM20 10C20 15.5469 15.5078 20 10 20C4.45312 20 0 15.5469 0 10C0 4.49219 4.45312 0 10 0C15.5078 0 20 4.49219 20 10ZM10 1.875C5.50781 1.875 1.875 5.54688 1.875 10C1.875 14.4922 5.50781 18.125 10 18.125C14.4531 18.125 18.125 14.4922 18.125 10C18.125 5.54688 14.4531 1.875 10 1.875Z" fill="#828282"/>
</svg>
