<svg width="24" height="24" viewBox="0 0 24 24" fill="none" xmlns="http://www.w3.org/2000/svg">
<path d="M6.75 9.75C6.75 8.95312 7.40625 8.25 8.25 8.25C9.09375 8.25 9.75 8.95312 9.75 9.75C9.75 10.5938 9.09375 11.25 8.25 11.25C7.40625 11.25 6.75 10.5938 6.75 9.75ZM17.25 9.75C17.25 10.5938 16.5938 11.25 15.75 11.25C14.9062 11.25 14.25 10.5938 14.25 9.75C14.25 8.95312 14.9062 8.25 15.75 8.25C16.5938 8.25 17.25 8.95312 17.25 9.75ZM15.375 15.375C15.9844 15.375 16.5 15.8906 16.5 16.5C16.5 17.1562 15.9844 17.625 15.375 17.625H8.625C7.96875 17.625 7.5 17.1562 7.5 16.5C7.5 15.8906 7.96875 15.375 8.625 15.375H15.375ZM24 12C24 18.6562 18.6094 24 12 24C5.34375 24 0 18.6562 0 12C0 5.39062 5.34375 0 12 0C18.6094 0 24 5.39062 24 12ZM12 21.75C17.3438 21.75 21.75 17.3906 21.75 12C21.75 6.65625 17.3438 2.25 12 2.25C6.60938 2.25 2.25 6.65625 2.25 12C2.25 17.3906 6.60938 21.75 12 21.75Z" fill="#333333"/>
</svg>
