<svg width="20" height="22" viewBox="0 0 20 22" fill="none" xmlns="http://www.w3.org/2000/svg">
<path d="M18.125 11C18.125 8.10938 16.5625 5.45312 14.0625 3.96875C11.5234 2.52344 8.4375 2.52344 5.9375 3.96875C3.39844 5.45312 1.875 8.10938 1.875 11C1.875 13.9297 3.39844 16.5859 5.9375 18.0703C8.4375 19.5156 11.5234 19.5156 14.0625 18.0703C16.5625 16.5859 18.125 13.9297 18.125 11ZM0 11C0 7.44531 1.875 4.16406 5 2.36719C8.08594 0.570312 11.875 0.570312 15 2.36719C18.0859 4.16406 20 7.44531 20 11C20 14.5938 18.0859 17.875 15 19.6719C11.875 21.4688 8.08594 21.4688 5 19.6719C1.875 17.875 0 14.5938 0 11ZM6.91406 13.4609C7.5 14.0859 8.51562 14.75 10 14.75C11.4453 14.75 12.4609 14.0859 13.0469 13.4609C13.3984 13.0703 13.9844 13.0312 14.375 13.3828C14.7656 13.7344 14.7656 14.3203 14.4141 14.7109C13.5547 15.6484 12.0703 16.625 10 16.625C7.89062 16.625 6.40625 15.6484 5.54688 14.7109C5.19531 14.3203 5.23438 13.7344 5.58594 13.3828C5.97656 13.0312 6.5625 13.0703 6.91406 13.4609ZM5.625 9.125C5.625 8.46094 6.17188 7.875 6.875 7.875C7.57812 7.875 8.125 8.46094 8.125 9.125C8.125 9.82812 7.57812 10.375 6.875 10.375C6.17188 10.375 5.625 9.82812 5.625 9.125ZM13.125 7.875C13.8281 7.875 14.375 8.46094 14.375 9.125C14.375 9.82812 13.8281 10.375 13.125 10.375C12.4219 10.375 11.875 9.82812 11.875 9.125C11.875 8.46094 12.4219 7.875 13.125 7.875Z" fill="#828282"/>
</svg>
