<svg width="18" height="18" viewBox="0 0 18 18" fill="none" xmlns="http://www.w3.org/2000/svg">
<circle cx="9" cy="9" r="9" fill="#828282"/>
<path d="M9 17C6.125 17 3.5 15.5 2.0625 13C0.625 10.5312 0.625 7.5 2.0625 5C3.5 2.53125 6.125 1 9 1C11.8438 1 14.4688 2.53125 15.9062 5C17.3438 7.5 17.3438 10.5312 15.9062 13C14.4688 15.5 11.8438 17 9 17ZM5.96875 13.1562C6.34375 11.9375 7.53125 11 9 11C10.4375 11 11.625 11.9375 12 13.1562C12.0938 13.4375 12.375 13.5625 12.625 13.5C12.9062 13.4062 13.0312 13.125 12.9688 12.875C12.4375 11.2188 10.8438 10 9 10C7.125 10 5.53125 11.2188 5 12.875C4.9375 13.125 5.0625 13.4062 5.34375 13.5C5.59375 13.5625 5.875 13.4375 5.96875 13.1562ZM5.5 7.5C5.5 8.0625 5.9375 8.5 6.5 8.5C7.0625 8.5 7.5 8.0625 7.5 7.5C7.5 6.96875 7.0625 6.5 6.5 6.5C5.9375 6.5 5.5 6.96875 5.5 7.5ZM11.5 6.5C10.9375 6.5 10.5 6.96875 10.5 7.5C10.5 8.0625 10.9375 8.5 11.5 8.5C12.0625 8.5 12.5 8.0625 12.5 7.5C12.5 6.96875 12.0625 6.5 11.5 6.5Z" fill="white"/>
</svg>
