<svg width="22" height="20" viewBox="0 0 22 20" fill="none" xmlns="http://www.w3.org/2000/svg">
<path d="M19.125 10C19.125 7.10938 17.5625 4.45312 15.0625 2.96875C12.5234 1.52344 9.4375 1.52344 6.9375 2.96875C4.39844 4.45312 2.875 7.10938 2.875 10C2.875 12.9297 4.39844 15.5859 6.9375 17.0703C9.4375 18.5156 12.5234 18.5156 15.0625 17.0703C17.5625 15.5859 19.125 12.9297 19.125 10ZM11 0C14.5547 0 17.8359 1.91406 19.6328 5C21.4297 8.125 21.4297 11.9141 19.6328 15C17.8359 18.125 14.5547 20 11 20C7.40625 20 4.125 18.125 2.32812 15C0.53125 11.9141 0.53125 8.125 2.32812 5C4.125 1.91406 7.40625 0 11 0ZM7.875 9.375C7.17188 9.375 6.625 8.82812 6.625 8.125C6.625 7.46094 7.17188 6.875 7.875 6.875C8.57812 6.875 9.125 7.46094 9.125 8.125C9.125 8.82812 8.57812 9.375 7.875 9.375ZM15.375 8.125C15.375 8.82812 14.8281 9.375 14.125 9.375C13.4219 9.375 12.875 8.82812 12.875 8.125C12.875 7.46094 13.4219 6.875 14.125 6.875C14.8281 6.875 15.375 7.46094 15.375 8.125ZM8.1875 12.8125H13.8125C14.3203 12.8125 14.75 13.2422 14.75 13.75C14.75 14.2969 14.3203 14.6875 13.8125 14.6875H8.1875C7.64062 14.6875 7.25 14.2969 7.25 13.75C7.25 13.2422 7.64062 12.8125 8.1875 12.8125Z" fill="#828282"/>
</svg>
