<svg width="28" height="22" viewBox="0 0 28 22" fill="none" xmlns="http://www.w3.org/2000/svg">
<path d="M18.125 11C18.125 8.10938 16.5625 5.45312 14.0625 3.96875C11.5234 2.52344 8.4375 2.52344 5.9375 3.96875C3.39844 5.45312 1.875 8.10938 1.875 11C1.875 13.9297 3.39844 16.5859 5.9375 18.0703C8.4375 19.5156 11.5234 19.5156 14.0625 18.0703C16.5625 16.5859 18.125 13.9297 18.125 11ZM0 11C0 7.44531 1.875 4.16406 5 2.36719C8.08594 0.570312 11.875 0.570312 15 2.36719C18.0859 4.16406 20 7.44531 20 11C20 14.5938 18.0859 17.875 15 19.6719C11.875 21.4688 8.08594 21.4688 5 19.6719C1.875 17.875 0 14.5938 0 11ZM6.60156 7.48438C6.91406 6.58594 7.73438 6 8.67188 6H10.9375C12.3047 6 13.4375 7.13281 13.4375 8.5C13.4375 9.35938 12.9297 10.1797 12.1875 10.6094L10.9375 11.3516C10.8984 11.8594 10.5078 12.25 10 12.25C9.45312 12.25 9.0625 11.8594 9.0625 11.3125V10.8047C9.0625 10.4531 9.21875 10.1406 9.53125 9.98438L11.25 9.00781C11.4453 8.89062 11.5625 8.69531 11.5625 8.5C11.5625 8.14844 11.2891 7.91406 10.9375 7.91406H8.67188C8.55469 7.91406 8.4375 7.99219 8.39844 8.10938L8.35938 8.14844C8.20312 8.65625 7.65625 8.89062 7.1875 8.73438C6.67969 8.53906 6.44531 7.99219 6.60156 7.52344V7.48438ZM8.75 14.75C8.75 14.0859 9.29688 13.5 10 13.5C10.6641 13.5 11.25 14.0859 11.25 14.75C11.25 15.4531 10.6641 16 10 16C9.29688 16 8.75 15.4531 8.75 14.75Z" fill="#828282"/>
<path d="M27.0314 4.552L24.9034 5.032L26.2794 6.728L25.3194 7.464L24.0074 5.576L22.6794 7.464L21.7194 6.728L23.0954 5.032L20.9674 4.552L21.2874 3.368L23.4794 4.04L23.3994 1.736H24.6154L24.5354 4.04L26.7274 3.368L27.0314 4.552Z" fill="#828282"/>
</svg>
