<svg width="18" height="18" viewBox="0 0 18 18" fill="none" xmlns="http://www.w3.org/2000/svg">
<circle cx="9" cy="9" r="9" fill="#6A65F5"/>
<path d="M9 17C6.125 17 3.5 15.5 2.0625 13C0.625 10.5312 0.625 7.5 2.0625 5C3.5 2.53125 6.125 1 9 1C11.8438 1 14.4688 2.53125 15.9062 5C17.3438 7.5 17.3438 10.5312 15.9062 13C14.4688 15.5 11.8438 17 9 17ZM6.125 11.1875C5.9375 10.9688 5.625 10.9688 5.40625 11.125C5.1875 11.3125 5.1875 11.625 5.34375 11.8438C6.0625 12.6562 7.25 13.5 9 13.5C10.7188 13.5 11.9062 12.6562 12.625 11.8438C12.7812 11.625 12.7812 11.3125 12.5625 11.125C12.3438 10.9688 12.0312 10.9688 11.8438 11.1875C11.3125 11.8438 10.3438 12.5 9 12.5C7.625 12.5 6.6875 11.8438 6.125 11.1875ZM5.5 7.5C5.5 8.0625 5.9375 8.5 6.5 8.5C7.0625 8.5 7.5 8.0625 7.5 7.5C7.5 6.96875 7.0625 6.5 6.5 6.5C5.9375 6.5 5.5 6.96875 5.5 7.5ZM11.5 6.5C10.9375 6.5 10.5 6.96875 10.5 7.5C10.5 8.0625 10.9375 8.5 11.5 8.5C12.0625 8.5 12.5 8.0625 12.5 7.5C12.5 6.96875 12.0625 6.5 11.5 6.5Z" fill="white"/>
</svg>
