<svg width="18" height="18" viewBox="0 0 18 18" fill="none" xmlns="http://www.w3.org/2000/svg">
<circle cx="9" cy="9" r="9" fill="#6A65F5"/>
<path d="M9 17C6.125 17 3.5 15.5 2.0625 13C0.625 10.5312 0.625 7.5 2.0625 5C3.5 2.53125 6.125 1 9 1C11.8438 1 14.4688 2.53125 15.9062 5C17.3438 7.5 17.3438 10.5312 15.9062 13C14.4688 15.5 11.8438 17 9 17ZM13.125 10.7812C11.875 11.1562 10.4688 11.375 9 11.375C7.53125 11.375 6.125 11.1562 4.875 10.7812C4.5 10.6562 4.125 11 4.28125 11.375C5.0625 13.2188 6.875 14.5 9 14.5C11.125 14.5 12.9375 13.2188 13.7188 11.375C13.875 11 13.5 10.6562 13.125 10.7812ZM5.5 7.5C5.5 8.0625 5.9375 8.5 6.5 8.5C7.0625 8.5 7.5 8.0625 7.5 7.5C7.5 6.96875 7.0625 6.5 6.5 6.5C5.9375 6.5 5.5 6.96875 5.5 7.5ZM11.5 6.5C10.9375 6.5 10.5 6.96875 10.5 7.5C10.5 8.0625 10.9375 8.5 11.5 8.5C12.0625 8.5 12.5 8.0625 12.5 7.5C12.5 6.96875 12.0625 6.5 11.5 6.5Z" fill="white"/>
</svg>
